<?xml version="1.0" standalone="no"?>
<!DOCTYPE svg PUBLIC "-//W3C//DTD SVG 20010904//EN"
 "http://www.w3.org/TR/2001/REC-SVG-20010904/DTD/svg10.dtd">
<svg version="1.0" xmlns="http://www.w3.org/2000/svg"
 width="512.000000pt" height="512.000000pt" viewBox="0 0 512.000000 512.000000"
 preserveAspectRatio="xMidYMid meet">

<g transform="translate(0.000000,512.000000) scale(0.100000,-0.100000)"
fill="#f00" stroke="none">
<path d="M2315 4739 c-628 -65 -1227 -430 -1578 -962 -168 -254 -264 -483
-322 -761 -37 -184 -48 -316 -42 -531 6 -206 20 -307 67 -491 221 -857 983
-1517 1862 -1613 123 -14 406 -14 523 -1 498 58 970 294 1325 666 328 343 540
797 591 1266 15 131 6 493 -15 609 -93 535 -378 1020 -793 1350 -335 266 -726
427 -1142 469 -118 12 -358 11 -476 -1z m-220 -1106 c48 -25 1504 -881 1563
-920 57 -36 91 -92 92 -147 0 -47 -21 -103 -49 -130 -33 -32 -1582 -944 -1638
-965 -80 -30 -187 20 -217 101 -15 39 -16 139 -14 1004 l3 960 25 36 c54 80
149 105 235 61z"/>
</g>
</svg>
