{
    "asset" : {
        "generator" : "Khronos glTF Blender I/O v1.8.19",
        "version" : "2.0"
    },
    "scene" : 0,
    "scenes" : [
        {
            "name" : "Scene",
            "nodes" : [
                0,
                1,
                2,
                3,
                4,
                5
            ]
        }
    ],
    "nodes" : [
        {
            "mesh" : 0,
            "name" : "Mesh_0",
            "rotation" : [
                0.7071068286895752,
                0,
                0,
                0.7071067094802856
            ]
        },
        {
            "mesh" : 1,
            "name" : "Mesh_1",
            "rotation" : [
                0.7071068286895752,
                0,
                0,
                0.7071067094802856
            ]
        },
        {
            "mesh" : 2,
            "name" : "Mesh_2",
            "rotation" : [
                0.7071068286895752,
                0,
                0,
                0.7071067094802856
            ]
        },
        {
            "mesh" : 3,
            "name" : "Mesh_3",
            "rotation" : [
                0.7071068286895752,
                0,
                0,
                0.7071067094802856
            ]
        },
        {
            "mesh" : 4,
            "name" : "Mesh_4",
            "rotation" : [
                0.7071068286895752,
                0,
                0,
                0.7071067094802856
            ]
        },
        {
            "mesh" : 5,
            "name" : "Mesh_5",
            "rotation" : [
                0.7071068286895752,
                0,
                0,
                0.7071067094802856
            ]
        }
    ],
    "materials" : [
        {
            "name" : "Material_0",
            "normalTexture" : {
                "index" : 0,
                "scale" : 0.8999999761581421
            },
            "pbrMetallicRoughness" : {
                "baseColorTexture" : {
                    "index" : 1
                },
                "metallicFactor" : 0,
                "roughnessFactor" : 0.4000000059604645
            }
        },
        {
            "name" : "Material_1",
            "normalTexture" : {
                "index" : 2
            },
            "pbrMetallicRoughness" : {
                "baseColorTexture" : {
                    "index" : 3
                },
                "metallicFactor" : 0,
                "roughnessFactor" : 0.4000000059604645
            }
        },
        {
            "emissiveFactor" : [
                1,
                1,
                1
            ],
            "emissiveTexture" : {
                "index" : 4
            },
            "name" : "Material_2",
            "normalTexture" : {
                "index" : 5,
                "scale" : 8.799999237060547
            },
            "pbrMetallicRoughness" : {
                "baseColorTexture" : {
                    "index" : 6
                },
                "metallicFactor" : 0,
                "roughnessFactor" : 0
            }
        },
        {
            "name" : "Material_3",
            "normalTexture" : {
                "index" : 7,
                "scale" : 7.299999713897705
            },
            "pbrMetallicRoughness" : {
                "baseColorTexture" : {
                    "index" : 8
                },
                "metallicFactor" : 0,
                "roughnessFactor" : 0.4000000059604645
            }
        },
        {
            "name" : "Material_4",
            "normalTexture" : {
                "index" : 9
            },
            "pbrMetallicRoughness" : {
                "baseColorTexture" : {
                    "index" : 10
                },
                "metallicFactor" : 0,
                "roughnessFactor" : 0.4000000059604645
            }
        },
        {
            "name" : "Material_5",
            "normalTexture" : {
                "index" : 11
            },
            "pbrMetallicRoughness" : {
                "baseColorTexture" : {
                    "index" : 12
                },
                "metallicFactor" : 0,
                "roughnessFactor" : 0.4000000059604645
            }
        }
    ],
    "meshes" : [
        {
            "name" : "Mesh_0",
            "primitives" : [
                {
                    "attributes" : {
                        "POSITION" : 0,
                        "NORMAL" : 1,
                        "TANGENT" : 2,
                        "TEXCOORD_0" : 3
                    },
                    "indices" : 4,
                    "material" : 0
                }
            ]
        },
        {
            "name" : "Mesh_1",
            "primitives" : [
                {
                    "attributes" : {
                        "POSITION" : 5,
                        "NORMAL" : 6,
                        "TANGENT" : 7,
                        "TEXCOORD_0" : 8
                    },
                    "indices" : 9,
                    "material" : 1
                }
            ]
        },
        {
            "name" : "Mesh_2",
            "primitives" : [
                {
                    "attributes" : {
                        "POSITION" : 10,
                        "NORMAL" : 11,
                        "TANGENT" : 12,
                        "TEXCOORD_0" : 13
                    },
                    "indices" : 14,
                    "material" : 2
                }
            ]
        },
        {
            "name" : "Mesh_3",
            "primitives" : [
                {
                    "attributes" : {
                        "POSITION" : 15,
                        "NORMAL" : 16,
                        "TANGENT" : 17,
                        "TEXCOORD_0" : 18
                    },
                    "indices" : 19,
                    "material" : 3
                }
            ]
        },
        {
            "name" : "Mesh_4",
            "primitives" : [
                {
                    "attributes" : {
                        "POSITION" : 20,
                        "NORMAL" : 21,
                        "TANGENT" : 22,
                        "TEXCOORD_0" : 23
                    },
                    "indices" : 24,
                    "material" : 4
                }
            ]
        },
        {
            "name" : "Mesh_5",
            "primitives" : [
                {
                    "attributes" : {
                        "POSITION" : 25,
                        "NORMAL" : 26,
                        "TANGENT" : 27,
                        "TEXCOORD_0" : 28
                    },
                    "indices" : 29,
                    "material" : 5
                }
            ]
        }
    ],
    "textures" : [
        {
            "sampler" : 0,
            "source" : 0
        },
        {
            "sampler" : 0,
            "source" : 1
        },
        {
            "sampler" : 0,
            "source" : 2
        },
        {
            "sampler" : 0,
            "source" : 3
        },
        {
            "sampler" : 0,
            "source" : 4
        },
        {
            "sampler" : 0,
            "source" : 5
        },
        {
            "sampler" : 0,
            "source" : 6
        },
        {
            "sampler" : 0,
            "source" : 2
        },
        {
            "sampler" : 0,
            "source" : 3
        },
        {
            "sampler" : 0,
            "source" : 7
        },
        {
            "sampler" : 0,
            "source" : 8
        },
        {
            "sampler" : 0,
            "source" : 9
        },
        {
            "sampler" : 0,
            "source" : 8
        }
    ],
    "images" : [
        {
            "mimeType" : "image/jpeg",
            "name" : "mat3_n",
            "uri" : "textures/mat3_n.jpg"
        },
        {
            "mimeType" : "image/jpeg",
            "name" : "mat3_c",
            "uri" : "textures/mat3_c.jpg"
        },
        {
            "mimeType" : "image/jpeg",
            "name" : "mat1_n",
            "uri" : "textures/mat1_n.jpg"
        },
        {
            "mimeType" : "image/jpeg",
            "name" : "mat1_c",
            "uri" : "textures/mat1_c.jpg"
        },
        {
            "mimeType" : "image/jpeg",
            "name" : "mat4_s",
            "uri" : "textures/mat4_s.jpg"
        },
        {
            "mimeType" : "image/jpeg",
            "name" : "mat2_n",
            "uri" : "textures/mat2_n.jpg"
        },
        {
            "mimeType" : "image/jpeg",
            "name" : "mat2_c",
            "uri" : "textures/mat2_c.jpg"
        },
        {
            "mimeType" : "image/jpeg",
            "name" : "mat0_g",
            "uri" : "textures/mat0_g.jpg"
        },
        {
            "mimeType" : "image/jpeg",
            "name" : "mat4_c",
            "uri" : "textures/mat4_c.jpg"
        },
        {
            "mimeType" : "image/jpeg",
            "name" : "mat4_n",
            "uri" : "textures/mat4_n.jpg"
        }
    ],
    "accessors" : [
        {
            "bufferView" : 0,
            "componentType" : 5126,
            "count" : 2945,
            "max" : [
                1.5559170246124268,
                1.7308260202407837,
                -6.21211576461792
            ],
            "min" : [
                -0.10837999731302261,
                -0.34020501375198364,
                -9.911849975585938
            ],
            "type" : "VEC3"
        },
        {
            "bufferView" : 1,
            "componentType" : 5126,
            "count" : 2945,
            "type" : "VEC3"
        },
        {
            "bufferView" : 2,
            "componentType" : 5126,
            "count" : 2945,
            "type" : "VEC4"
        },
        {
            "bufferView" : 3,
            "componentType" : 5126,
            "count" : 2945,
            "type" : "VEC2"
        },
        {
            "bufferView" : 4,
            "componentType" : 5123,
            "count" : 14622,
            "type" : "SCALAR"
        },
        {
            "bufferView" : 5,
            "componentType" : 5126,
            "count" : 6824,
            "max" : [
                2.021677017211914,
                1.750285029411316,
                -4.67904806137085
            ],
            "min" : [
                -0.6253470182418823,
                -0.46852099895477295,
                -9.988652229309082
            ],
            "type" : "VEC3"
        },
        {
            "bufferView" : 6,
            "componentType" : 5126,
            "count" : 6824,
            "type" : "VEC3"
        },
        {
            "bufferView" : 7,
            "componentType" : 5126,
            "count" : 6824,
            "type" : "VEC4"
        },
        {
            "bufferView" : 8,
            "componentType" : 5126,
            "count" : 6824,
            "type" : "VEC2"
        },
        {
            "bufferView" : 9,
            "componentType" : 5123,
            "count" : 29727,
            "type" : "SCALAR"
        },
        {
            "bufferView" : 10,
            "componentType" : 5126,
            "count" : 4250,
            "max" : [
                1.8844150304794312,
                1.6514040231704712,
                -0.08336599916219711
            ],
            "min" : [
                -1.2689299583435059,
                -1.0243040323257446,
                -8.981348037719727
            ],
            "type" : "VEC3"
        },
        {
            "bufferView" : 11,
            "componentType" : 5126,
            "count" : 4250,
            "type" : "VEC3"
        },
        {
            "bufferView" : 12,
            "componentType" : 5126,
            "count" : 4250,
            "type" : "VEC4"
        },
        {
            "bufferView" : 13,
            "componentType" : 5126,
            "count" : 4250,
            "type" : "VEC2"
        },
        {
            "bufferView" : 14,
            "componentType" : 5123,
            "count" : 20796,
            "type" : "SCALAR"
        },
        {
            "bufferView" : 15,
            "componentType" : 5126,
            "count" : 8176,
            "max" : [
                1.2339470386505127,
                0.8269640207290649,
                -8.183417320251465
            ],
            "min" : [
                -0.255748987197876,
                -0.5574349761009216,
                -10
            ],
            "type" : "VEC3"
        },
        {
            "bufferView" : 16,
            "componentType" : 5126,
            "count" : 8176,
            "type" : "VEC3"
        },
        {
            "bufferView" : 17,
            "componentType" : 5126,
            "count" : 8176,
            "type" : "VEC4"
        },
        {
            "bufferView" : 18,
            "componentType" : 5126,
            "count" : 8176,
            "type" : "VEC2"
        },
        {
            "bufferView" : 19,
            "componentType" : 5123,
            "count" : 33540,
            "type" : "SCALAR"
        },
        {
            "bufferView" : 20,
            "componentType" : 5126,
            "count" : 564,
            "max" : [
                5.911055088043213,
                4.806532859802246,
                0.046737998723983765
            ],
            "min" : [
                -5.421385765075684,
                -4.496356010437012,
                -0.18162000179290771
            ],
            "type" : "VEC3"
        },
        {
            "bufferView" : 21,
            "componentType" : 5126,
            "count" : 564,
            "type" : "VEC3"
        },
        {
            "bufferView" : 22,
            "componentType" : 5126,
            "count" : 564,
            "type" : "VEC4"
        },
        {
            "bufferView" : 23,
            "componentType" : 5126,
            "count" : 564,
            "type" : "VEC2"
        },
        {
            "bufferView" : 24,
            "componentType" : 5123,
            "count" : 1410,
            "type" : "SCALAR"
        },
        {
            "bufferView" : 25,
            "componentType" : 5126,
            "count" : 1402,
            "max" : [
                1.2947399616241455,
                1.6571669578552246,
                -8.069673538208008
            ],
            "min" : [
                -0.004137000069022179,
                1.1876709461212158,
                -9.105728149414062
            ],
            "type" : "VEC3"
        },
        {
            "bufferView" : 26,
            "componentType" : 5126,
            "count" : 1402,
            "type" : "VEC3"
        },
        {
            "bufferView" : 27,
            "componentType" : 5126,
            "count" : 1402,
            "type" : "VEC4"
        },
        {
            "bufferView" : 28,
            "componentType" : 5126,
            "count" : 1402,
            "type" : "VEC2"
        },
        {
            "bufferView" : 29,
            "componentType" : 5123,
            "count" : 2046,
            "type" : "SCALAR"
        }
    ],
    "bufferViews" : [
        {
            "buffer" : 0,
            "byteLength" : 35340,
            "byteOffset" : 0
        },
        {
            "buffer" : 0,
            "byteLength" : 35340,
            "byteOffset" : 35340
        },
        {
            "buffer" : 0,
            "byteLength" : 47120,
            "byteOffset" : 70680
        },
        {
            "buffer" : 0,
            "byteLength" : 23560,
            "byteOffset" : 117800
        },
        {
            "buffer" : 0,
            "byteLength" : 29244,
            "byteOffset" : 141360
        },
        {
            "buffer" : 0,
            "byteLength" : 81888,
            "byteOffset" : 170604
        },
        {
            "buffer" : 0,
            "byteLength" : 81888,
            "byteOffset" : 252492
        },
        {
            "buffer" : 0,
            "byteLength" : 109184,
            "byteOffset" : 334380
        },
        {
            "buffer" : 0,
            "byteLength" : 54592,
            "byteOffset" : 443564
        },
        {
            "buffer" : 0,
            "byteLength" : 59454,
            "byteOffset" : 498156
        },
        {
            "buffer" : 0,
            "byteLength" : 51000,
            "byteOffset" : 557612
        },
        {
            "buffer" : 0,
            "byteLength" : 51000,
            "byteOffset" : 608612
        },
        {
            "buffer" : 0,
            "byteLength" : 68000,
            "byteOffset" : 659612
        },
        {
            "buffer" : 0,
            "byteLength" : 34000,
            "byteOffset" : 727612
        },
        {
            "buffer" : 0,
            "byteLength" : 41592,
            "byteOffset" : 761612
        },
        {
            "buffer" : 0,
            "byteLength" : 98112,
            "byteOffset" : 803204
        },
        {
            "buffer" : 0,
            "byteLength" : 98112,
            "byteOffset" : 901316
        },
        {
            "buffer" : 0,
            "byteLength" : 130816,
            "byteOffset" : 999428
        },
        {
            "buffer" : 0,
            "byteLength" : 65408,
            "byteOffset" : 1130244
        },
        {
            "buffer" : 0,
            "byteLength" : 67080,
            "byteOffset" : 1195652
        },
        {
            "buffer" : 0,
            "byteLength" : 6768,
            "byteOffset" : 1262732
        },
        {
            "buffer" : 0,
            "byteLength" : 6768,
            "byteOffset" : 1269500
        },
        {
            "buffer" : 0,
            "byteLength" : 9024,
            "byteOffset" : 1276268
        },
        {
            "buffer" : 0,
            "byteLength" : 4512,
            "byteOffset" : 1285292
        },
        {
            "buffer" : 0,
            "byteLength" : 2820,
            "byteOffset" : 1289804
        },
        {
            "buffer" : 0,
            "byteLength" : 16824,
            "byteOffset" : 1292624
        },
        {
            "buffer" : 0,
            "byteLength" : 16824,
            "byteOffset" : 1309448
        },
        {
            "buffer" : 0,
            "byteLength" : 22432,
            "byteOffset" : 1326272
        },
        {
            "buffer" : 0,
            "byteLength" : 11216,
            "byteOffset" : 1348704
        },
        {
            "buffer" : 0,
            "byteLength" : 4092,
            "byteOffset" : 1359920
        }
    ],
    "samplers" : [
        {
            "magFilter" : 9729,
            "minFilter" : 9987
        }
    ],
    "buffers" : [
        {
            "byteLength" : 1364012,
            "uri" : "agent-01.bin"
        }
    ]
}
